<svg aria-hidden="true" style="width:0;height:0;position:absolute;overflow:hidden" xmlns="http://www.w3.org/2000/svg"><defs><symbol id="icon-home" viewBox="0 0 32 32"><path fill="none" stroke="#5c5c5c" style="stroke:var(--color2,#5c5c5c)" stroke-linejoin="round" stroke-linecap="round" stroke-width="1.6" d="M13.6 24v-8h4.8v8M8.8 13.6 16 8l7.2 5.6v8.8a1.6 1.6 0 0 1-1.6 1.6H10.4a1.6 1.6 0 0 1-1.6-1.6v-8.8z"/></symbol><symbol id="icon-user" viewBox="0 0 32 32"><path fill="none" stroke="#5c5c5c" style="stroke:var(--color2,#5c5c5c)" stroke-linejoin="round" stroke-linecap="round" stroke-width="1.6" d="M22.4 23.2v-1.6a3.2 3.2 0 0 0-3.2-3.2h-6.4a3.2 3.2 0 0 0-3.2 3.2v1.6M19.2 12a3.2 3.2 0 1 1-6.4 0 3.2 3.2 0 0 1 6.4 0z"/></symbol><symbol id="icon-message" viewBox="0 0 32 32"><path fill="none" stroke="#5c5c5c" style="stroke:var(--color2,#5c5c5c)" stroke-linejoin="round" stroke-linecap="round" stroke-width="1.6" d="M23.2 15.6a6.7 6.7 0 0 1-.72 3.04 6.796 6.796 0 0 1-6.08 3.76 6.7 6.7 0 0 1-3.04-.72L8.8 23.2l1.52-4.56a6.787 6.787 0 0 1 .297-6.614A6.803 6.803 0 0 1 13.36 9.52a6.7 6.7 0 0 1 3.04-.72h.4a6.784 6.784 0 0 1 6.4 6.4v.4z"/></symbol><symbol id="icon-camera" viewBox="0 0 32 32"><path fill="none" stroke="#5c5c5c" style="stroke:var(--color2,#5c5c5c)" stroke-linejoin="round" stroke-linecap="round" stroke-width="1.6" d="M24.8 21.6a1.6 1.6 0 0 1-1.6 1.6H8.8a1.6 1.6 0 0 1-1.6-1.6v-8.8a1.6 1.6 0 0 1 1.6-1.6H12l1.6-2.4h4.8l1.6 2.4h3.2a1.6 1.6 0 0 1 1.6 1.6v8.8z"/><path fill="none" stroke="#5c5c5c" style="stroke:var(--color2,#5c5c5c)" stroke-linejoin="round" stroke-linecap="round" stroke-width="1.6" d="M16 20a3.2 3.2 0 1 0 0-6.4 3.2 3.2 0 0 0 0 6.4z"/></symbol><symbol id="icon-settings" viewBox="0 0 32 32">s<path fill="none" stroke="#5c5c5c" style="stroke:var(--color2,#5c5c5c)" stroke-linejoin="round" stroke-linecap="round" stroke-width="1.6" d="M16 18.4a2.4 2.4 0 1 0 .001-4.799A2.4 2.4 0 0 0 16 18.4z"/><path fill="none" stroke="#5c5c5c" style="stroke:var(--color2,#5c5c5c)" stroke-linejoin="round" stroke-linecap="round" stroke-width="1.6" d="M21.92 18.4a1.323 1.323 0 0 0 .264 1.456l.048.048a1.593 1.593 0 0 1 .469 1.132 1.593 1.593 0 0 1-.469 1.132 1.609 1.609 0 0 1-1.132.469 1.593 1.593 0 0 1-1.132-.469l-.048-.048a1.324 1.324 0 0 0-1.456-.264 1.324 1.324 0 0 0-.8 1.208v.136a1.6 1.6 0 0 1-3.2 0v-.072a1.317 1.317 0 0 0-.864-1.208 1.323 1.323 0 0 0-1.456.264l-.048.048a1.593 1.593 0 0 1-1.132.469 1.593 1.593 0 0 1-1.132-.469 1.609 1.609 0 0 1-.469-1.132 1.593 1.593 0 0 1 .469-1.132l.048-.048a1.324 1.324 0 0 0 .264-1.456 1.324 1.324 0 0 0-1.208-.8H8.8a1.6 1.6 0 0 1 0-3.2h.072a1.317 1.317 0 0 0 1.208-.864 1.323 1.323 0 0 0-.264-1.456l-.048-.048a1.593 1.593 0 0 1-.469-1.132 1.593 1.593 0 0 1 .469-1.132 1.609 1.609 0 0 1 1.132-.469 1.593 1.593 0 0 1 1.132.469l.048.048a1.324 1.324 0 0 0 1.456.264h.064a1.324 1.324 0 0 0 .8-1.208V8.8a1.6 1.6 0 0 1 3.2 0v.072a1.324 1.324 0 0 0 .8 1.208 1.323 1.323 0 0 0 1.456-.264l.048-.048a1.593 1.593 0 0 1 1.132-.469 1.593 1.593 0 0 1 1.132.469 1.609 1.609 0 0 1 .469 1.132 1.593 1.593 0 0 1-.469 1.132l-.048.048a1.324 1.324 0 0 0-.264 1.456v.064a1.324 1.324 0 0 0 1.208.8h.136a1.6 1.6 0 0 1 0 3.2h-.072a1.324 1.324 0 0 0-1.208.8z"/></symbol></defs></svg>