<svg aria-hidden="true" style="position:absolute;width:0;height:0;overflow:hidden" xmlns="http://www.w3.org/2000/svg"><defs>
<symbol id="icon-home" viewBox="0 0 32 32">
<path fill="none" stroke="#5c5c5c" style="stroke: var(--color2, #5c5c5c)" stroke-linejoin="round" stroke-linecap="round" stroke-miterlimit="4" stroke-width="1.6" d="M13.6 24v-8h4.8v8M8.8 13.6l7.2-5.6 7.2 5.6v8.8c0 0.424-0.169 0.831-0.469 1.131s-0.707 0.469-1.131 0.469h-11.2c-0.424 0-0.831-0.169-1.131-0.469s-0.469-0.707-0.469-1.131v-8.8z"></path>
</symbol>
<symbol id="icon-user" viewBox="0 0 32 32">
<path fill="none" stroke="#5c5c5c" style="stroke: var(--color2, #5c5c5c)" stroke-linejoin="round" stroke-linecap="round" stroke-miterlimit="4" stroke-width="1.6" d="M22.4 23.2v-1.6c0-0.849-0.337-1.663-0.937-2.263s-1.414-0.937-2.263-0.937h-6.4c-0.849 0-1.663 0.337-2.263 0.937s-0.937 1.414-0.937 2.263v1.6M19.2 12c0 1.767-1.433 3.2-3.2 3.2s-3.2-1.433-3.2-3.2c0-1.767 1.433-3.2 3.2-3.2s3.2 1.433 3.2 3.2z"></path>
</symbol>
<symbol id="icon-message" viewBox="0 0 32 32">
<path fill="none" stroke="#5c5c5c" style="stroke: var(--color2, #5c5c5c)" stroke-linejoin="round" stroke-linecap="round" stroke-miterlimit="4" stroke-width="1.6" d="M23.2 15.6c0.003 1.056-0.244 2.098-0.72 3.040-0.564 1.129-1.432 2.079-2.506 2.743s-2.311 1.016-3.574 1.017c-1.056 0.003-2.098-0.244-3.040-0.72l-4.56 1.52 1.52-4.56c-0.476-0.942-0.723-1.984-0.72-3.040 0-1.263 0.352-2.5 1.017-3.574s1.614-1.942 2.743-2.506c0.942-0.476 1.984-0.723 3.040-0.72h0.4c1.667 0.092 3.242 0.796 4.423 1.977s1.885 2.756 1.977 4.423v0.4z"></path>
</symbol>
<symbol id="icon-camera" viewBox="0 0 32 32">
<path fill="none" stroke="#5c5c5c" style="stroke: var(--color2, #5c5c5c)" stroke-linejoin="round" stroke-linecap="round" stroke-miterlimit="4" stroke-width="1.6" d="M24.8 21.6c0 0.424-0.169 0.831-0.469 1.131s-0.707 0.469-1.131 0.469h-14.4c-0.424 0-0.831-0.169-1.131-0.469s-0.469-0.707-0.469-1.131v-8.8c0-0.424 0.169-0.831 0.469-1.131s0.707-0.469 1.131-0.469h3.2l1.6-2.4h4.8l1.6 2.4h3.2c0.424 0 0.831 0.169 1.131 0.469s0.469 0.707 0.469 1.131v8.8z"></path>
<path fill="none" stroke="#5c5c5c" style="stroke: var(--color2, #5c5c5c)" stroke-linejoin="round" stroke-linecap="round" stroke-miterlimit="4" stroke-width="1.6" d="M16 20c1.767 0 3.2-1.433 3.2-3.2s-1.433-3.2-3.2-3.2c-1.767 0-3.2 1.433-3.2 3.2s1.433 3.2 3.2 3.2z"></path>
</symbol>
<symbol id="icon-settings" viewBox="0 0 32 32">s
<path fill="none" stroke="#5c5c5c" style="stroke: var(--color2, #5c5c5c)" stroke-linejoin="round" stroke-linecap="round" stroke-miterlimit="4" stroke-width="1.6" d="M16 18.4c1.326 0 2.4-1.074 2.4-2.4s-1.074-2.4-2.4-2.4c-1.326 0-2.4 1.074-2.4 2.4s1.074 2.4 2.4 2.4z"></path>
<path fill="none" stroke="#5c5c5c" style="stroke: var(--color2, #5c5c5c)" stroke-linejoin="round" stroke-linecap="round" stroke-miterlimit="4" stroke-width="1.6" d="M21.92 18.4c-0.106 0.241-0.138 0.509-0.091 0.768s0.171 0.499 0.355 0.688l0.048 0.048c0.149 0.149 0.267 0.325 0.347 0.519s0.122 0.402 0.122 0.613-0.041 0.418-0.122 0.613c-0.080 0.194-0.198 0.371-0.347 0.519s-0.325 0.267-0.519 0.347c-0.194 0.081-0.402 0.122-0.613 0.122s-0.418-0.041-0.613-0.122c-0.194-0.080-0.371-0.198-0.519-0.347l-0.048-0.048c-0.189-0.184-0.428-0.308-0.688-0.355s-0.527-0.015-0.768 0.091c-0.237 0.101-0.438 0.27-0.581 0.484s-0.218 0.466-0.219 0.724v0.136c0 0.424-0.169 0.831-0.469 1.131s-0.707 0.469-1.131 0.469c-0.424 0-0.831-0.169-1.131-0.469s-0.469-0.707-0.469-1.131v-0.072c-0.006-0.265-0.092-0.522-0.246-0.737s-0.369-0.38-0.618-0.471c-0.241-0.106-0.509-0.138-0.768-0.091s-0.499 0.171-0.688 0.355l-0.048 0.048c-0.149 0.149-0.325 0.267-0.519 0.347s-0.402 0.122-0.613 0.122-0.418-0.041-0.613-0.122c-0.194-0.080-0.371-0.198-0.519-0.347s-0.267-0.325-0.347-0.519c-0.081-0.194-0.122-0.402-0.122-0.613s0.041-0.418 0.122-0.613c0.080-0.194 0.198-0.371 0.347-0.519l0.048-0.048c0.184-0.189 0.308-0.428 0.355-0.688s0.015-0.527-0.091-0.768c-0.101-0.237-0.27-0.438-0.484-0.581s-0.466-0.218-0.724-0.219h-0.136c-0.424 0-0.831-0.169-1.131-0.469s-0.469-0.707-0.469-1.131c0-0.424 0.169-0.831 0.469-1.131s0.707-0.469 1.131-0.469h0.072c0.265-0.006 0.522-0.092 0.737-0.246s0.38-0.369 0.471-0.618c0.106-0.241 0.138-0.509 0.091-0.768s-0.171-0.499-0.355-0.688l-0.048-0.048c-0.149-0.149-0.267-0.325-0.347-0.519s-0.122-0.402-0.122-0.613 0.041-0.418 0.122-0.613c0.080-0.194 0.198-0.371 0.347-0.519s0.325-0.267 0.519-0.347c0.194-0.081 0.402-0.122 0.613-0.122s0.418 0.041 0.613 0.122c0.194 0.080 0.371 0.198 0.519 0.347l0.048 0.048c0.189 0.184 0.428 0.308 0.688 0.355s0.527 0.015 0.768-0.091h0.064c0.237-0.101 0.438-0.27 0.581-0.484s0.218-0.466 0.219-0.724v-0.136c0-0.424 0.169-0.831 0.469-1.131s0.707-0.469 1.131-0.469c0.424 0 0.831 0.169 1.131 0.469s0.469 0.707 0.469 1.131v0.072c0.001 0.257 0.077 0.509 0.219 0.724s0.344 0.383 0.581 0.484c0.241 0.106 0.509 0.138 0.768 0.091s0.499-0.171 0.688-0.355l0.048-0.048c0.149-0.149 0.325-0.267 0.519-0.347s0.402-0.122 0.613-0.122 0.418 0.041 0.613 0.122c0.194 0.080 0.371 0.198 0.519 0.347s0.267 0.325 0.347 0.519c0.081 0.194 0.122 0.402 0.122 0.613s-0.041 0.418-0.122 0.613c-0.080 0.194-0.198 0.371-0.347 0.519l-0.048 0.048c-0.184 0.189-0.308 0.428-0.355 0.688s-0.015 0.527 0.091 0.768v0.064c0.101 0.237 0.27 0.438 0.484 0.581s0.466 0.218 0.724 0.219h0.136c0.424 0 0.831 0.169 1.131 0.469s0.469 0.707 0.469 1.131c0 0.424-0.169 0.831-0.469 1.131s-0.707 0.469-1.131 0.469h-0.072c-0.257 0.001-0.509 0.077-0.724 0.219s-0.383 0.344-0.484 0.581z"></path>
</symbol>
</defs></svg>